<?xml version="1.0" encoding="utf-8"?>
<!-- Generator: Adobe Illustrator 27.8.1, SVG Export Plug-In . SVG Version: 6.00 Build 0)  -->
<svg version="1.1" id="Layer_1" xmlns="http://www.w3.org/2000/svg" xmlns:xlink="http://www.w3.org/1999/xlink" x="0px" y="0px"
	 viewBox="0 0 800 553.6" style="enable-background:new 0 0 800 553.6;" xml:space="preserve">
<style type="text/css">
	.st0{fill:#A43C38;}
</style>
<g id="single_state_map" transform="translate(0, 0)">
	<path class="st0" d="M672.4,495l0.4,0.8l1.1,1.2l0.2,0.3l0.1,0.4l0,1l-0.1,0.6l-0.2,0.6l-0.2,0.3l-0.2,0.3l-1.3,1.2L672,502
		l-0.2,0.5l0,0.5l0,0.4l0.1,0.4l0.2,0.4l1.6,2.3l1.1,1.8l0.3,0.8l0.1,0.4l0,0.2l-0.3,1.6l-0.5,1.3l-0.3,0.4l-0.4,0.4l-0.5,0.3
		l-0.6,0.2l-0.7,0.1l-1.5-0.1l-2-0.5l-1.8-0.1l-0.5,0.1l-0.5,0.2l-0.5,0.5l-0.4,0.8l0,0.8l0.1,0.3l0.7,1.4l2.1,1.4l0.5,0.4l0.5,0.6
		l2.3,1.2l0.5-0.1l0.2-0.2l0.2,0l0.5,0.4l0.2,0.2l0.2,0.6l0.1,1l0,1.1l-0.4,0.4l-0.2,0.1l-0.3,0l-0.4-0.1l-0.4-0.2l-0.4-0.1l-0.4,0
		L670,524l-0.8,0.7l-0.3,0.2l-0.9,0.3l-1.4,0.2l-0.4,0l-0.4-0.1l-1.2-0.5l-1.2-0.6l-0.5-0.2l-1-0.1l-2.4,0.3l-0.8-0.1l-0.5-0.3
		l-0.4-0.1l-0.3,0.3l-0.1,0.3l-0.3,0.6l-0.2,0.4l0,0.2l0,0.2l0.1,0.1l0.4,0.5l0.7,0.7l1.2,1.1l1.4,1.1l0.9,0.6l0.9,0.9l0.7,0.6
		l0.7,0.4l0.5,0.3l0.5,0.4l1.1,1l0.6,0.8l0.6,1.1l0.2,0.6l0.1,0.7l0,1l-0.1,0.7l-0.1,0.3l-0.5,0.6l-0.3,0.3l-1.2,0.7l-0.9,0.7
		l-0.3,0.1l-1.4,0.4l-1.4,0.5l-0.8,0.4l-0.6,0.5l-0.6,0.8l-0.1,0.2l-0.2,1.2l-0.2,2.4l-0.3,2.1l-0.1,0.6l-0.4,1l-1,1.4l-0.2,0.4
		l-0.1,0.5l-2.5,0l-0.4,0l0,0l-3,0l0,0l-9.3,0.1l-0.5,0l0,0l0,0l-2,0l-0.4,0l-5.5,0h0l-0.1,0l-0.4,0l-0.7,0l-12.3,0.1l-2.1,0.1
		l-0.1,0l-3,0l-12.2,0.1l-0.3,0l-4.4,0l-0.3,0l-2.5,0l-0.9,0l1.3-2.1l0.7-0.5l0.5-0.8l0-0.2l0-0.2l0.1-0.4l0.3-0.4l-0.1-0.6l0.1-0.2
		l0.8-0.6l0.2-0.1l0.2-1.6l0.2-0.7l1.2-0.4l0.2-0.5l0-0.1l0-0.3l-0.1-0.2l-0.1-0.7l0.1-0.3l0.6-0.5l0.6,0l0.6-0.4l0.2-0.6l0-0.2
		l-0.1-0.2l0.4-0.7l0.1-0.2l1.4-0.4l0.6-0.1l0.6-0.3l0.5-0.8l0.2,0l0.3,0.1l0.2,0l0.4-0.3l0.3-0.4l0.2-0.4l0.3-0.1l0.5-0.3l0.4-0.9
		l0-0.8l-0.4-0.6l0.5-0.9l-0.1-0.3l0.2-0.5l0.8-1.3l0.4,0l0.2,0.2l0.2,0l0.6-0.4l0.4-0.6l-0.1-0.1l0-0.3l0.2-0.1l0.3,0.1l0.2-0.5
		l0.1-0.1l0.1,0l0.3-0.1l0.2-0.5l0.2,0.1l0.3-0.1l0.3-0.4l0.6-0.2l0.5-0.4l0.6-0.3l0.2,0l0.2,0.2l0.1,0l0.3-0.2l0.1-0.4l0.9-1l0.4,0
		l0.3,0.1l0.2,0l0.6-0.3l0.2-0.5l0-0.2l-0.2-0.1l-0.3-0.5l0-0.2l0.1-0.1l0.4,0l0.1-0.1l0.6-1.1l0.3-1.4l0.2-0.1l0.2,0l0.5,0l0.5-0.3
		l0.8-0.3l0.4,0l0.3-0.1l0.7-1.1l-0.2-0.8l0.7-0.7l0.6-1l-0.5-1.2l-0.7-0.7l-0.1,0l-0.2,0.1l-0.1,0l-0.2-0.4l0.1-0.4l0.2-0.3
		l0.2-0.3l0.1-0.4l0-0.1l-0.2-0.2l0.1-0.6l0.2-0.1l0.1-0.1l-0.1-0.2l-0.3-0.4l0-0.1l0.2-0.1l0.4-0.7l0.4-0.4l0.2-1.6l-0.1-1.1
		l-0.4-0.8l-0.4-0.5l-0.1,0l-0.2-0.3l-0.2-0.4l-0.2-0.2l-1.3-0.4l-0.9-0.1l-0.6,0.1l-0.5-0.2l-0.1-0.3l-0.5-0.3l-0.7-0.1l-0.2-0.4
		l-0.4,0.2l-0.3,0l0-0.1l0.2-0.1l0.1-0.2l0.1-0.7l-0.1,0l-0.1,0l-0.2,0.2l-0.2,0l-0.4-0.3l0-0.2l0-0.3l0.1-0.3l0.3,0l0.1-0.1
		l0.3-0.5l0-0.2l-0.2-0.6l-0.1-1.5l-0.3-0.3l-0.1-0.2l0-0.1l0-0.1l0-0.1l-0.1-0.1l-0.1,0l-0.1,0.1l-0.1,0.1l-1.1-0.1l0-0.3l0.3-0.6
		l0.6,0.2l0.4-0.1l0-0.2l-0.1-0.5l-0.2-0.1l-0.3,0l-1-0.4l-0.1-0.1l0-0.1l0.2-0.3l-0.2-0.2l0-0.2l0.3,0l0-0.3l-0.2-0.1l-0.1-0.1
		l0-0.2l0.2-0.1l0.2,0.1l0.1-0.2l-0.1-0.2l0.2-0.1l-3.9,0l-2.2,0l-0.3,0l-0.8,0l-10.4-0.1l-14.5,0l0,0l-0.5,0l-7.1,0l-0.9,0l-0.8,0
		h-1l-0.7,0l-3.4,0l-0.4,0l-3.7,0l-1.7,0l-5.1,0l-1.6,0l-6.4,0l-2.2,0.1l-0.3,0l0,0l-0.2,0l-7.7,0l-0.2,0l-4.3,0l-0.9,0l-7.3,0l0,0
		l-2.8,0l-8.5,0l-0.1,0l-0.8,0l-16.7,0.1l0,0l-0.2,0l0,0l-2.4,0l-0.3,0l-0.9,0l-5.1-0.2l-2.8,0l-0.7,0l-0.2,0l-0.9,0l-4.4,0l-0.5,0
		l-2.8,0l-1,0l-2.8,0l-1.3,0l-0.1,0l-3.7,0l-3.7,0l-1.7,0l-1.4,0l-0.2,0l-0.4,0l-5.5,0l-0.2,0l-11.3,0l-0.3,0l-2.9,0l-0.9,0l-2.5,0
		h-0.1l-1.7,0l-2.2,0l-2.1,0l-1.6,0l-5.8,0l-1.1,0l-0.3,0l-0.2,0l-8.7,0.1l-0.8,0l-3,0l-2.3,0.1l-0.9-0.1l-3.3,0l-2.2-0.1l-6.8,0
		L388,495l-19.6,0.1l-6.2,0l0,0l-5.2,0l0,0l-16.4,0l-0.1,0l-1.7,0l-0.1,0l-3.5,0l-17.8-0.1l-7.5,0l-0.1,0l-2.9,0l-7.6,0l-0.7,0
		l-6.6,0l-10.9,0l-0.9,0l-0.8,0l-0.8,0l0,0l-16.7,0h-1.5l-3.5,0h-0.4l-10.6,0l-2,0l-0.2,0l-1,0l-0.1,0l-23.5-0.1l-14.9,0l-3.7,0
		l-5.5,0l0-1.8l0-0.3l0-1.9l0-0.2l0-0.1l0-4.8l0-2.5l0-0.9l0-0.7l0-6.7l0-3.8l0-7.6l0-9.5l0-3.8l0-2l0-1.7l0-1.7l0-0.4l0-0.9l0-1.1
		l0-0.4l0-5.2l0-0.2l0-0.2l0-1.3l0-3.7l0-1.9l0-2.2l0-1.3l0-0.1l0-0.8l0,0l0-0.4l0-0.9l0-1.1l0-2l0-0.3l0-3.3l0-1.7l0-0.8l0-0.9
		l0-2.2l0-0.1l0-2.4l0-0.1l0-1l0-0.3l0-9.8l0-1.6l0-0.2l0-3.1l0-0.4l0,0l0-3.4l0-1.7l0-1.7l0-1.7l0-1.8l0-0.7l0,0l0-0.6l0-0.5l0-1.7
		l0-4.5l0-0.7l0-3l0-0.5l0-1.2l0-0.5l0,0l0-4.5l0-0.1l0-3.2l0-2l0-2.3l0-1.1l0-0.5l0-0.1l0-0.3l0-3.8l0-0.9l0-5.1l0.1-5.5l0-2.2
		l0-0.9l0-2.1l0-1.1l0-0.7l0-1l0-1.8l0-0.6l0-1.1l0-2.2l0-0.3l0-0.5l0-0.4l0-0.7l0-0.2l0-2.3l0-2l0-0.6l0-5.3l0-2.8l0-0.7l0-0.2
		l0-9.8l0-1.3l0-0.9l0-2.7l0-1.2l0-0.4l0-1.6l0-0.2l0-0.9l0-1.3l0-3.9l0-2.3l0-0.2l0-1.3V280l0-0.6l0-0.5l0-1.4l0-3.4l0-0.6l0-2.7
		l0-1.3l0-8.9l0-0.7l0-0.1l0-0.9l0-6.8l0-0.2l0-3.2l0-0.4l0,0l0-3.5l0-1.3l0-0.5l0-1.2l0.2-12.7l0-0.2l0.1-8.3l0-2l0-2.4V215v-0.7
		l0-0.7l0-0.1v-0.1v-1.8l0-6.4l0-0.1l0-0.3v-0.2l0-4.8l0.1-10.2l0-1.9l0-1l0-2.9l0-0.7l0.1-0.3l0.5-0.8l0.7-0.9l0.2-0.5l-0.2-1.8
		l-0.4-0.3l-0.5-0.2l-0.7-0.1l-0.7,0.1l-0.8,0.4l-1.5,0.4l-1-0.1l-1.1-0.4l0.2-1.3l-0.3-1.3l-0.5-0.4l-1.1-0.3l-0.6,0.1l-0.9,0.6
		l-1.7,1L185,177l-1.2,0l-0.5-0.1l-1-0.4l-1-0.8l-0.7-1.2l-0.5-1.3l-0.2-0.4l-0.3-0.3l-0.2-0.1l-0.3-0.1l-1.2,0.2l-1.1-0.1l-0.8-0.2
		l-0.3-0.2l-0.7-0.7l-0.2-0.2l-0.1-0.3l0-0.4l0.7-1.2l0.2-0.5l0-0.4l-0.2-1l-0.4-0.8l-0.6-0.7l-0.8-0.7l-1-0.6l-1-0.5l-1-0.4
		l-0.4-0.3l-0.4-0.4l-0.8-0.9l-0.5-0.7l-0.3-0.7l-0.2-0.7l-0.3-1.4l-0.2-3l0.1-0.5l0.1-0.2l0.2-0.3l0.5-0.4l0.3-0.2l0.2-0.1l0.6-0.1
		l0.5-0.4l0.4-0.4l0.2-0.6l0-0.5l-0.2-0.5l-0.4-0.7l-0.4-0.3l-0.3-0.1l-0.3,0l-0.6,0.1l-0.7,0.5l-0.6,0.3l-0.3,0.1l-0.4,0.1l-1-0.1
		l-0.3-0.1l-0.2-0.2l-0.2-0.2l-0.3-0.5l-0.1-0.2l0-0.5l0-0.7l-0.1-0.4l-0.3-0.4l-0.3-0.3l-1.1-0.4l-0.6-0.5l-0.3-0.6l-0.2-1.2
		l-0.3-0.5l-0.8-0.7l-0.5-0.2l-1.9-0.6l-1.2-0.7l-0.5-0.3l-0.4-0.3l-0.3-0.3l-0.5-0.7l-0.1-0.3l-0.1-0.7l-0.1-1.7l-0.1-0.4l-0.2-0.3
		l-0.4-0.5l-0.3-0.3l-1.7-0.9l-0.5-0.4l-0.9-0.9l-1-1.1l-0.3-0.5l-0.3-0.6l-0.4-1.4l0-0.6l0.5-1.8l0.1-0.2l0.3-0.3l0.4-0.2l0.3-0.1
		l0.6-0.1l1.2,0.5l0.4,0.1l0.3,0l0.5-0.1l0.5-0.2l0.2-0.2l0.2-0.2l0.5-0.9l0.2-0.7l0.1-0.5l0-0.3l-0.1-0.6l-0.5-0.9l-0.2-0.9l0-0.4
		l0.1-0.7l0.4-0.9l0.5-0.8l0.5-0.6l0.1-0.4l0.9-1.5l0.3-0.4l0.6-0.5l0.3-0.2l0.6-0.2l0.7-0.1l0.7,0l0.9-0.2l0.2-0.1l0.5-0.3l0.5-0.6
		l0.1-0.3l0.1-0.5l0-1.8l-0.2-1.9l0-0.8l0.1-0.3l0.5-0.8l0.5-0.5l0.5-0.3l0.2,0l0.4,0l0.4,0.1l0.5,0.3l0.9,0.8l1.1,0.8l0.8,0.4
		l0.7,0.2l0.3,0l0.7-0.1l0.7-0.2l0.8-0.5l0.5-0.5l0.7-1l0.2-0.8l0.1-0.5l-0.1-1.1l-0.2-0.5l-0.2-0.3l-0.2-0.2l-0.2-0.1l-0.1,0
		l-1,0.2h0l-0.2,0.1l-0.9,0.7l0,0l0,0l0,0l-0.1,0.1l0,0l-0.4,0.2l-0.7,0.2l-0.6,0l-0.4-0.2l-0.9-0.7l-0.3-0.3l-0.4-0.6l-0.1-0.2
		l0-0.4l0.1-0.5l0.2-0.4l0.3-0.2l0.4-0.2l3.1-0.2l0.3-0.1l0.6-0.3l0.3-0.4l0.4-1.2l0-0.8l-0.1-0.9l0-0.4l-0.2-0.3l-0.2-0.3l-0.6-0.5
		l-0.2-0.1l-0.3,0l-1,0.1l-0.6-0.1l-0.7-0.2l-0.9-0.6l-1.1-1l-0.2-0.3l-0.3-0.6l0-0.5l0.2-0.4l0.2-0.3l0.7-0.7l0.3-0.5l0.1-0.5
		l0-0.5l-0.1-0.3l-0.2-0.3l-0.5-0.6l-0.9-0.6l-0.7-0.3l-0.7-0.1l-0.4,0.1l-1.4,0.4l-0.9,0.1l-0.3,0l-1.3-0.4l-0.4,0l-0.4,0.1
		l-0.5,0.3l-0.5,0.8l-0.1,0.2l-0.1,0.4l0.1,1l0,0.3l-0.2,0.6l-0.4,0.4l-0.5,0.3l-0.4,0.1l-1,0.1l-2.7,0.3l-0.3,0l-0.5-0.2l-1.5-0.7
		l-2.1-0.6l-0.6-0.3l-0.2-0.2l-0.3-0.4l-0.2-0.5l-0.1-0.4l0.1-0.7l0-0.3l-0.1-0.5l-0.2-0.3l-0.3-0.2l-0.6-0.2l-0.4,0l-1.2,0.6
		l-0.7,0.2l-1,0l-0.4-0.1l-0.5-0.2l-0.2-0.2l-0.4-0.5l0-0.2l0-0.3l0.1-0.4l0.4-0.9l0.1-0.7l-0.1-0.7l-0.3-0.6l-0.9-0.5l-0.3-0.1
		l-0.4-0.1l-1,0.1l-0.5,0l-0.4-0.1l-0.8-0.5l-0.7-0.8l-0.4-0.7l-0.8-1.1l-0.5-0.3l-1.4-0.7l-1.2-0.8l-0.4-0.6l-0.1-0.2l-0.1-0.4
		l0-0.8l0-0.3l-0.3-0.7l-0.1-0.2l-0.3-0.3l-0.3-0.1l-1-0.3l-0.7-0.4l-1-1.1l-0.2-0.1l-0.8-0.3l-0.7,0l-1.8,0.5l-0.4,0l-0.4,0
		l-0.4-0.1l-0.6-0.3l-0.4-0.3l-0.6-0.7l-0.3-0.6l-0.2-0.6l-0.2-1.3l0.1-0.4l0.2-0.5l0.3-0.4l0.5-0.6l0.1-0.6l-0.1-0.6l-0.1-0.9
		l0.3-0.8l0.7-0.6l0.3-0.2l0.3-0.4l0.1-0.4l0-0.6l0-0.4l-0.2-0.4l-0.3-0.4l-0.5-0.3l-0.5-0.1l-0.9-0.1l-0.5-0.3l-0.4-0.3l-0.2-0.3
		l-0.1-0.3l-0.1-0.6l0-0.8l-0.1-0.4l-0.1-0.3l-0.4-0.4l-0.2-0.1l-1.1-0.4l-0.5-0.3l-1-1l-0.5-0.6l-0.3-0.5l-0.2-0.4l-0.1-0.5l0-0.6
		l0-0.4l0.4-1l0.4-0.6l0.2-0.5l0.1-0.5l0-0.8l-0.1-0.4l-0.2-0.6l-0.5-0.8l-0.5-0.4l-0.3-0.2l-0.4-0.1L112,45l-1.4,0.1l-0.6-0.1
		l-2.4-1.2l-0.5-0.3l-0.2-0.2l-0.2-0.5l0-0.4l0.5-1.3l0-0.6l-0.1-0.3l-0.2-0.3l-0.5-0.6l-0.3-0.2l-0.6-0.2l-1.3-0.1l-0.5-0.3
		l-0.3-0.2l-0.8-0.8l-0.6-0.3l-0.5-0.2l-0.3,0l-0.4,0.1l-0.5,0.2l-1.2,0.6L98.6,38l-0.3,0l-0.6-0.1l-0.3-0.2l-0.3-0.4l-0.1-0.2
		l0-0.4l0.1-0.5l0.3-0.4l0.5-0.4l1.3-0.5l0.4-0.2l0.4-0.4l0.2-0.5l0-0.3l-0.1-0.7l-0.1-0.3l-0.2-0.4l-0.4-0.6l-0.5-0.5l-0.4-0.6
		l-0.1-0.4l0-0.6l0.1-0.4L98.5,28L98,26.9L97,25.3l-0.2-0.9l0.1-0.4l0.2-0.7l0.2-0.5l0.1-0.7l-0.2-0.9l-0.7-1.1l-0.6-0.7L95.4,19
		l-0.7-0.4l-0.8-0.7l-0.1-0.3L93.5,17l0-0.4l0.1-0.4l0.1-0.6l0-0.9l-0.1-0.7l-0.4-0.8l0.4-0.1l0.3-0.2l2.3-0.8l0.6-0.3l0.6-0.8
		l0.3-1.8l-0.1-0.5l-0.2-0.6l-0.6-0.4l-0.3-0.8l-0.6-0.7l-0.7,0l-0.8,0.2L93.8,7l-0.1,0.8l-0.2,0.7l-0.1,1l0.2,0.5l-0.2,0.6
		l-1.1,0.9l-0.1-0.3l-0.4-0.4l-0.8-0.1l-0.3,0l-0.6,0.3l-0.6,0.2l-1.1,0l-0.8-0.2l-0.5-0.3l-0.4-0.4l-0.2-0.3l-0.1-0.3l0.1-0.5
		l0.3-0.7l0.1-0.3l0-0.3l0-0.4L87.1,7l-0.6-1.1L86.2,5l0.1-0.6l0.5-0.6L87,3.5l1.8,0l5.5,0.1l0,0l4.3,0l2.9,0.1l3.5,0.1l1.8,0l2,0
		l0.6,0l0.1,0l5.3,0.1L120,4l3.9,0.1l1.5,0l2.1,0l10.7,0.1l0.3,0l0.1,0l0.4,0l0.1,0l0.1,0l0,0l4.5,0.1l0.9,0l3.2,0.1l0.8,0l0.1,0
		l0,0l0.3,0l0.9,0l1.7,0l1,0l7.3,0.1l2.4,0l1.1,0l3.8,0.1l1.3,0l0.4,0l6.9,0.1l0.4,0l0.8,0l3.5,0.1l5.4,0.1h0.2l3,0.1l4.8,0.1l3.6,0
		l4.9,0h0l0.3,0h0.1l0.3,0l4.2,0l1.7,0l0.1,0l1,0l2.9,0l6.7,0l2,0l0,0l1.1,0l1.3,0l1.5,0l0.7,0L244.5,5l0.2,0l0.8,0h0l4.3-0.1l1.8,0
		l3.6-0.1l1.2,0l2.3-0.1l0.1,0l0.1,0l0.1,0l0.1,0l2,0l1.2,0l0.1,0l0.1,0l4.2-0.1l1.2,0l2.1,0l0.3,0l4.3,0l1.9,0l0.7,0l0.5,0l0.8,0
		l0.6,0l3,0l1.2,0l0.8,0l0.7,0l0.2,0l0.3,0l5.5-0.1l2.9-0.1l0,0l0.1,0l0.4,0l0.2,0l0.2,0l0.3,0l0.5,0l1.9,0l0.1,0l0.3,0l5.4,0.1
		l0.1,0l2.2,0l9.1-0.1l2.6,0l5.4,0l11.7-0.3l3.5-0.1l0.1,0l1.1,0l12-0.4l1.5,0l3.6,0l1.3,0l1,0l1.5,0l0.5,0l2.1,0l0.7,0l0,0l6.6,0
		l1.4,0l4.9-0.1l0.3,0l4.5-0.1l0.1,0l5.4-0.2l9-0.3l0.2,0l0.1,0l1.9-0.1l0.7,0l7-0.2l2.7-0.1l1.8-0.1l0,0l3.1-0.1l5.9-0.1l1.8,0
		l1.5,0l0.5,0l1.5-0.1l7.8-0.2l0.3,0l0.9,0l0.1,0l1.2-0.1l0.2,0l3.6-0.1l2.9-0.1l2.6-0.1l2.2,0l0.8-0.1l6.7-0.2l3.4-0.2l0.7,0l1,0
		l1.3-0.1l0.4,0l0.9,0l5.3-0.3l0.9,1.5l0.3,0.4l0.4,0.4l1.5,0.9l0.7,0.6l0.2,0.3l0.1,0.2l0,0.3L470.1,6l0,0.3l0.1,0.3l0.2,0.3
		l0.7,0.5l1,0.3l1.6,0.2l1.5,0.5l1.2,0.3l0.3,0.1l0.2,0.2l0.1,0.2l0.1,0.6l-0.1,1l-0.3,1.1l0,0.3l0.1,0.5l0.2,0.4l0.2,0.3l0.4,0.3
		l0.4,0.3l1.3,0.6l0.4,0.3l0.4,0.6l0.3,1l0.1,0.5l0.1,0.2l0.1,0.2l0.5,0.7l0.7,0.4l0.4,0.2l1,0.3l0.8,0.1l1.4-0.1l0.2,0l0.1,0.1
		l0.1,0.2l0.1,0.5l0,0.3l-0.1,0.2l-0.2,0.2l-0.5,0.5l-0.2,0.2l0,0.3l0.1,0.2l0.3,0.3l0.4,0.1l0.5,0l0.1,0.1l0,0.2l-0.2,0.6l-0.5,0.8
		l0,0.4l0.1,0.4l0.2,0.3l0.2,0.1l0.4,0.1l0.4,0l0.5,0.2l0.2,0.2l0.1,0.1l0.1,0.1l0.7,0.2l0.4-0.1l0.4-0.2h0.1l0.1,0.1l0,0.2
		l-0.1,0.3l-0.2,0.6l0,0.2l0.6,1.2l0.2,0.2l0.2,0l0.8-0.1l0.6-0.3l0,0.5l-0.1,0.3l0.1,0.3l0.1,0.1l1.1,0l0.4-0.4l0.7-0.9l1.5,0.5
		l0.3,0.2l0.3,0.3l-0.7,0.8l-0.3,0.2l-0.9,0.5l-0.5,0.4l-0.1,0.2l-0.1,0.3l-0.4,0.7l-0.9,1.4l-0.4,1l-0.3,1.5l-0.2,0.6l-1.3,2.9
		l-0.4,0.9l-0.3,1l0,0.4l0,0.7l0.2,0.6l0.1,0.3l-0.1,0.4l-0.7,1.5l-0.3,0.2l-0.2,0.3l-0.2,0.6l-0.1,0.3l0.1,0.2l0.2,0.3l0,0.9
		l-0.3,1.1l0,0.8l0.1,0.6l0.2,0.8l-0.1,0.3l-0.4,0.5l-0.1,0.3l-0.2,1l0,0.3l0.1,1l0.4,1.6l0,0.2l-0.3,0.9l0,0.3l0.1,2.3l0.1,0.8
		l0.3,1.7l0.5,2.1l0.3,1.6l0.2,0.9l0.5,1.7l-0.5,2.6l0.7,1.6l0.3,0.5l0.6,1.3l0.8,1.7l0.2,0.6l0.1,0.4l0.1,0.4l0.2,0.3l0.4,0.2
		l0.1,0.1l0.4,0.9l0.5,0.7l0.2,0.7l0.5,1l0.4,0.6l0.8,0.7l0.3,0.4l0.4,0.6l0.2,0.6l0.1,0.7l-0.1,0.7l-0.1,0.2l-0.8,0.9l-1.4,1.7
		l-0.3,1.3l-0.1,0.6l0.1,0.9l1,3l0.3,0.6l0.3,0.3l1.4,1l0.8,0.4l0.8,0.7l1.1,0.7l0.7,0.5l0.3,0.3l0.7,1l0.4,0.9l0.2,0.6l0,0.3
		l-0.3,0.7l-0.1,0.5l0,1.2l0.1,0.8l-0.1,0.3l-0.1,0.3l-0.2,1.1l0,1.5l0.2,0.4l1.4,1.7l0.7,0.7l1.3,1.1l1.3,1l1.2,1.1l0.3,0.5
		l0.8,0.6l1,0.6l0.7,0.5l0.9,1.1l0.6,1l1.1,1l0.3,0.4l0.2,0.5l0.2,0.4l1.1,1.1l0.6,0.4l0.6,0.3l2.9,1.2l0.4,0.3l0.4,0.5l0.3,0.6
		l0,0.2l0.2,1.2l0.2,1.5l0.1,0.6l0.4,0.8l0.5,0.7l0.5,0.6l0.5,0.3l2,0.4l1.2,0.1l1.3,0.3l0.7,1.1l0.6,1.5l0.6,1.1l0.4,0.6l1,1
		l0.2,2.5l0.3,0.6l0.6,0.8l1.4,1.7l1.4,1.2l1.1,0.7l0.8,0.6l0.9,0.6l1,0.3l0.5,0.3l0.5,0.5l0.5,0.3l0.9,0.4l0.9,0.2l0.7,0.4l0.2,0.2
		l0.2,0.2l0.2,0.4l0.2,0.6l0.5,0.6l0.4,0.3l0.3,0.2l0.6,0.2l0.6,0.1l0.3,0.2l0.2,0.2l0,0.3l0.2,0.4l0.6,0.6l3.3,1.9l1.1,0.7l0.7,0.6
		l1.8,2l0.4,0.4l1.6,0.9l0.6,0.4l0.2,0.3l0.1,0.5l0.6,0.7l0.8,0.5l0.2,0.3l0.6,1.3l1.5,1.8l0.3,0.2l0.9,0.3l0.5,0.3l0.4,0.4l0.3,0.6
		l0.5,2.2l0,0.3l-0.1,0.7l0.4,1.2l0,0.4l0,0.4l-0.1,0.5l0,0.7l0.3,1.5l0.4,1.1l0,0.4l0.1,2.2l0.1,0.5l0.3,0.9l0.2,0.5l0.2,0.4
		l0.5,0.7l0.8,1.4l0.1,0.5l0.3,1.6l-0.1,1.3l-0.1,0.2l-1.7,2l-0.1,0.2l-0.1,0.6l-1,1l-0.1,0.2l0,0.2l0.2,0.9l0.3,0.5l0.7,1.6
		l0.8,1.5l0.2,0.5l0.1,0.6l0.1,0.2l0.4,0.6l0.2,0.2l0.4,0.8l0.2,0.9l0,2.2l0,0.4l0.4,1.2l0.2,0.5l0.3,1.7l0.2,0.7l0.2,0.4l0.4,0.6
		l0.4,0.5l0.5,0.5l0.8,0.5l0.4,0.5l0.7,1.5l0.3,0.4l2.8,1.6l1.1,0.7l0.6,0.1l1-0.1l1-0.2l0.9-0.4l0.2-0.1l1.2-1.5l1.3-1.4l0.9-0.5
		l0.7-0.9l1.2-1.9l0.4-1.1l-0.1-0.7l0-0.2l0.1-0.3l1-1.7l0.4-0.4l0.5-0.3l1.1-0.4l1,0l0.6,0.2l0.8,0.2l1.1,0.1l0.6,0.1l1,0.3
		l1.2,0.6l3.4,1.8l1.2,0.9l0.9,0.4l0.6,0.2l0.8,0.5l0.3,0.1l0.7,0l1.4-0.1l0.6,0l0.7,0.1l0.7,0.3l0.5-0.1l0.3,0l0.4,0.1l0.8,0.5
		l1.1,0.5l0.7,0.4l0.9,0.8l1.5,1.5l0.2,0.1l0.5,0.1l0.3,0.1l1.9,1.1l1.4,1.1l3.6,2.2l0.4,0.7l0,0.7l-0.5,2.7L618,221l-0.5,0.9
		l-2.2,1.8l-1.9,1.3l-0.5,0.7l-0.4,0.8l-0.1,0.7l-0.7,0.9l-0.7,0.5l-1.3,1.3l-0.4,0.7l-0.1,0.6l0,0.4l0,0.7l0.3,1.1l0.7,1.1l0.7,0.7
		l0.8,1.5l0.4,1.1l0.1,0.7l0.3,2l0,1.1l-0.1,0.6l-0.5,2.1l-0.7,1.5l-0.4,0.5l-0.6,0.7l-0.7,0.6l-0.6,0.6l-0.5,0.3l-0.2,0.2l-2.3,3.6
		l-1.1,2l-0.3,0.9l-0.5,1.7l-0.2,1.2l-0.3,1.2l-0.1,0.8l-0.3,0.9l-0.5,2.6l-0.1,0.9l-0.3,0.6l-0.6,1.4l-2.5,3l-0.6,0.4l-1.4,1.5
		l-0.3,0.4l-0.3,0.5l-0.6,2.1l-1.1,2.4l-0.2,0.8l-0.2,1.2l0.1,2.3l-0.2,1.2l0,1.5l0.2,0.9l0.1,0.8l0.3,1.4l0.1,0.7l0.3,1.6l0.4,1.4
		l0.3,0.8l0.2,0.4l1.8,2.9l0.3,0.3l0.9,0.7l0.5,0.3l0.6,0.1l1,0.4l0.9,0.6l0.7,0.7l0.8,0.8l2.1,3.6l0.2,0.3l0.7,1.5l2.3,2.2l4.4,3
		l0.8-0.6l0.2-0.1l0.3,0l1.3,0.7l1.3,0.8l0.2,0.3l0.2,0.6l0,0.5l-0.1,0.8l0,0.4l0.8,1.1l0.6,0.6l1.6,1l0.5,0.2l0.7,0l0.8-0.2l0.7,0
		l0.5,0.2l0.2,0.1l0.2,0.3l0.2,0.4l0.1,0.3l0.1,0.3l0.2,0.2l0.3,0.2l1.3,0.6l2.3,3l0.8,0.7l0.3,0.2l1,0.1l0.7-0.1l2.3-0.5l1.2-0.4
		l0.4,0.6l0.1,0.5l0.1,0.2l0.2,0.1l0.8-0.1l0,0.5l-0.1,0.2l-0.7,0.8l-0.5,0.2l-0.9,0.7l-1.1,0l-0.2,0.7l-0.6,0.3l-0.6,0.6l0.1,0.9
		l0.1,0.2l0.2,0.3l1.8,3.8l0.2,0.2l1.2,0.8l1.3,0.5l0.9,0.1l1.1,0l0.4-0.2l1.5-1l0.5-0.4l0.9-1.2l0.4-0.4l1.1-0.8l0.6-0.2l0.2,0
		l0.6,0.4l2.1,1.7l0.9,0.6l0.4,0.2l0.1,0.2l0,0.6l-0.2,0.3l0,0.3l0.4,1.1l0.2,0.3l0.7,0.6l0.4-0.4l0.2,0.1l0.5,0.2l0.9,0l0.3,0.1
		l0.4,0.4l0.3,0.1l0.4-0.1l0.9,0l0.3,0.4l0.3,0.6l0.3,0.4l1.1,1.1l1.4,1.1l0.6,0.3l1.3,0.8l0.5,0.3l0.7,0.6l0.5,1.1l0.3,0.3l0.1,0.2
		l0,0.6l-0.1,0.6l-0.3,0.9l-0.2,0.5l-0.1,0.6l0.2,0.9l0.2,0.2l0.5,0.3l0.8,0.3l0.4-0.1l1.1,0l0.5-0.3l0.4-0.1l0.6-0.1l0.1,0.1l0,0.1
		l0,0.5l0.1,0.2l0.3,0.3l0.3,0l0.6,0.4l0.5,0.4l0.5,1.1l0.4,0.7l0.4,0.5l0.9,0.5l0.6,0.2l2.6,0.7l0.7,0.1l0.5,0.2l0.4,0.2l0.5,0.4
		l0.2,0.3l0.2,0.5l0,0.5l-0.2,0.5l-0.2,1l-0.1,1.4l0.1,0.6l0,0.6l-0.1,0.2l-0.1,0.3l0.2,0.6l0.5,0.6l0.4,0.8l2,2.1l0.7,1l0.2,0.4
		l0.1,0.3l0,0.3l-0.1,0.5l-0.3,0.3l-0.5,0.3l-0.8,0.1l-1.5-0.5l-0.4-0.1l-0.2,0l-0.3,0.2l-0.1,0.2l0,0.3l-0.1,2.2l0.1,0.8l0.4,2
		l0.1,0.2l0.4,0.7l0.5,0.7l0.4,0.8l0.3,0.6l0.2,0.9l0.5,1.3l1.6,2.7l0.4,0.6l1.9,1.9l0.7,0.9l0.4,0.6l0.5,1.2l0.8,2.3l0.3,1.2
		l0.1,0.6l0,0.5l-0.1,0.8l-0.6,2.9l-0.1,0.5l-0.3,0.6l-0.3,0.3L681,396l-0.7,0.1l-1.9,0.1l-0.9,0.3l-0.5,0.3l-0.2,0.2l-0.4,0.8
		l-0.4,0.4l-0.9,0.7l-0.1,0.2l-0.2,0.4l-0.2,0.8l-0.1,0.5l-0.1,0.5l-0.2,0.4l-0.1,0.3l0,0.5l0.1,0.4l0.3,0.6l0.7,1l0.4,0.6l0.6,0.6
		l0.6,0.8l1-0.2l0.8,0l0.7,0.2l0.2,0.1l0.2,0.2l0.1,0.2l0,0.5l0,0.3l-0.9,2.2l0,0.4l0.5,1.8l0.1,0.5l0.5,1.3l1.7,3.2l0.3,1.1
		l0.9,1.6l1,1.6l0.3,0.3l0.4,0.4l1.3,1l0.5,0.4l0.4,0.5l0.5,1l0.3,1l0,0.6l-0.3,1.2l-0.6,1.5l0,0.3l0.1,0.8l0.1,0.2l0.2,0.4l0.3,0.4
		l1.5,1.1l1.5,0.5l1.4,0.7l0.8,0.5l0.5,0.4l2.4,2.4l1.3,0.4l0.4-0.2l0.4-0.3l0.3-0.3l0.3-0.4l0.6-1.8l-0.2-0.9l-0.6-0.6l-1.1-0.9
		l-1.3-0.5l-1-0.5l-0.3-0.3l-0.2-0.3l-0.2-0.4l-0.1-0.5l0.2-1.2l0.1-0.2l1.3,0.3l1,0.1l0,0.1l0.3,0.1l1.5,0l0.4,0.1l0.5-0.9l0.9,1.7
		l0.7,1.8l0.4,0.7l0.8,0.7l1.9,1.3l0.4,0.5l0.2,0.5l0.3,1.4l0,1.2l0.3,1.2l0.6,0.8l0.8,0.3l0.7,0.1l0.8-0.3l1.1-0.6l0.5-0.2l0.3,0
		l0.8-0.3l0.4-0.1l0.4,0l0.6,0.2l0.3,0.2l0.5,0.4l0.6,0.8l0.3,0.6l0.1,0.4l0,0.4l-0.2,1.6l-0.1,0.6l-0.7,2.2l-0.8,3.8l-0.2,0.5
		l-0.6,1.3l-0.5,1.7l-0.6,1.2l-0.9,0l-0.5,0.1l-0.4,0.4l-0.2,0.1l-0.7,0l-0.3,0.1l-0.3,0.2l-0.4,0.5l-0.1,0.1l-0.1,0.4l0,1.7
		l-0.1,0.4l0,0.4l0.1,0.3l0.6,1.1l0.2,0.3l0.7,0.5l0.5,0.2l1.1,0.1l1,0l0.4,0.1l0.5,0.3l0.3,0.4l0.3,0.8l0.1,0.4l0,0.6l-0.2,0.9
		l-0.3,0.6l-0.3,0.4l-0.4,0l-0.5,0l-0.6-0.4l-0.9-0.1l-0.5,0l-0.9-0.4l-0.2,0l-1,0.4l-0.5,0.3l-0.7,0.8l-0.6,0.9l-0.2,0.6l-0.1,1
		l0,0.7l0.1,0.5l0.3,0.5l1.1,1.3l0.9,0.9l0.5,0.6l0.1,0.4l0,0.9l-0.1,0.4l-0.2,0.2l0.3,0.1l0.9,0.6l-0.5,0.7l-1,1.1l-0.8,0.7
		l-0.4,0.4l-0.5,0.6l-0.5,0.8l-0.1,0.4l-0.2,0.9l-0.2,1.9l-1,2.5l-0.4,0.5l-0.9,0.8l-0.9,0.3l-2,0.2l-0.2,0l-0.8-0.4l-0.3-0.3
		l-0.7-0.7l-1.5-1.9l-0.6-1.2l-1.1-1.9l-0.4-0.6l-0.8-0.8l-0.7,0l-0.9,0.1l-1.2,0.3l-0.8,0.4l-0.5,0.5l-0.4,0.6l-0.1,0.2l-0.2,0.7
		l-0.2,2l-0.2,0.9l-1.2,2.8l-0.1,0.4l0,0.5l-0.2,1.1l-0.7,1.7l-1.1,3.4l-0.2,0.6l-0.3,0.5l-0.6,0.9l-0.7,0.9l-1.1,1.2l-0.4,0.4
		l-0.7,0.4l-0.3,0.1l-0.7,0l-0.5-0.1l-0.9-0.4l-0.4-0.5l-0.2-0.5l-0.1-0.4l0-0.3l0.1-0.3l0.6-1.9l0.2-0.3l0.2-0.5l0.5-0.6l0.4-0.8
		l0.4-0.9l0.3-1l0-0.7l-0.2-1.3l-0.5-1.5l-0.5-1l-0.2-0.2l-0.4-0.2l-1.4-0.5l-1.4-0.2l-0.4-0.1l-0.3-0.2l-0.5-0.1l-1.4,0.1l-0.3,0.1
		l-0.6,0.3l-0.5,0.4l-0.5,0.6l-0.3,0.5l-0.3,0.7l-0.2,0.6l0,0.6l0.1,0.3l0.4,0.9l0.5,1.4l0.2,0.4l0.4,0.6l1.1,1.4L672.4,495z"/>
</g>
</svg>
